# xmcd
#
# Track frame offsets:
#	150
#	13761
#	29531
#	43677
#	57553
#	70793
#	86554
#	103577
#	118838
#	133884
#	150173
#	167023
#
# Disc length: 2424 seconds
#
# Revision: 1
# Processed by: cddbd v1.5.1PL0 Copyright (c) Steve Scherf et al.
# Submitted via: EasyCDDAExtractor 6.5.7.1
#
DISCID=9f09760c
DTITLE=Maate Quente - A Turma Do Mate
DYEAR=2004
DGENRE=Gaúcha
TTITLE0=A Turma Do Mate
TTITLE1=A Dança Da Panelera *
TTITLE2=Comida Boa
TTITLE3=Casar Não É Comigo
TTITLE4=Ela Só Caminha
TTITLE5=Todo Mundo Veio Pro Rodeio
TTITLE6=Última Carta
TTITLE7=Maria Pensão
TTITLE8=Balança Povão
TTITLE9=Amor Eu Choro
TTITLE10=Chapéu Véio
TTITLE11=É Por Isso Que Eu Bebo
EXTD=
EXTT0=
EXTT1=
EXTT2=
EXTT3=
EXTT4=
EXTT5=
EXTT6=
EXTT7=
EXTT8=
EXTT9=
EXTT10=
EXTT11=
PLAYORDER=
